<?xml version="1.0" standalone="no"?>
<!DOCTYPE svg PUBLIC "-//W3C//DTD SVG 20010904//EN"
 "http://www.w3.org/TR/2001/REC-SVG-20010904/DTD/svg10.dtd">
<svg version="1.0" xmlns="http://www.w3.org/2000/svg"
 width="450.000000pt" height="450.000000pt" viewBox="0 0 450.000000 450.000000"
 preserveAspectRatio="xMidYMid meet">
<metadata>
Created by potrace 1.10, written by Peter Selinger 2001-2011
</metadata>
<g transform="translate(0.000000,450.000000) scale(0.100000,-0.100000)"
fill="#000000" stroke="none">
<path d="M2745 3343 c-21 -51 -71 -101 -122 -125 -24 -10 -43 -23 -43 -28 0
-5 15 -13 33 -19 51 -17 103 -67 128 -121 12 -28 26 -50 30 -50 3 0 19 25 34
56 26 54 81 102 137 120 29 9 21 22 -27 45 -50 24 -100 76 -121 126 -18 43
-30 42 -49 -4z m89 -105 c6 -3 22 -16 36 -28 23 -20 24 -22 7 -32 -29 -16 -88
-70 -83 -76 3 -2 -1 -11 -9 -19 -13 -13 -17 -13 -30 1 -8 8 -15 19 -15 24 0
12 -62 68 -81 74 -11 4 -10 8 3 21 9 9 19 17 23 17 9 0 39 31 64 68 l23 32 25
-37 c14 -21 31 -41 37 -45z"/>
<path d="M2343 3202 c-7 -4 -19 -28 -28 -52 -40 -113 -131 -208 -250 -260
-102 -45 -102 -63 1 -109 120 -54 211 -150 250 -264 14 -43 36 -63 54 -52 5 3
27 43 49 88 50 105 137 191 227 227 104 41 109 67 20 102 -109 42 -191 121
-250 239 -42 84 -51 95 -73 81z m47 -94 c54 -118 141 -205 252 -251 l51 -21
-44 -19 c-67 -28 -199 -132 -199 -156 0 -4 -9 -16 -19 -26 -11 -9 -30 -41 -42
-71 -20 -48 -49 -73 -49 -42 0 23 -50 116 -79 146 -16 18 -26 32 -23 32 4 0
-5 8 -18 17 -14 9 -29 23 -33 30 -4 7 -12 13 -17 13 -5 0 -26 11 -46 25 -20
14 -41 22 -48 18 -6 -3 -8 -2 -3 2 4 5 -5 14 -20 20 l-27 11 47 18 c26 10 47
22 47 27 0 5 7 9 16 9 30 0 150 133 184 204 18 36 35 66 39 66 3 0 17 -24 31
-52z"/>
<path d="M2944 2828 c-4 -6 -20 -38 -36 -70 -33 -65 -89 -116 -161 -147 -26
-11 -47 -27 -47 -34 0 -8 21 -22 47 -32 67 -26 147 -104 174 -171 13 -30 28
-54 35 -54 7 0 27 29 44 64 32 69 86 123 149 151 86 38 88 46 14 80 -75 34
-135 93 -168 166 -26 59 -37 69 -51 47z m34 -82 c15 -40 106 -134 138 -142 34
-9 36 -29 4 -53 -16 -11 -33 -21 -38 -21 -13 0 -70 -65 -84 -95 -6 -14 -14
-25 -18 -25 -4 0 -11 -10 -14 -22 -6 -21 -9 -19 -27 19 -23 46 -100 133 -119
133 -6 0 -20 9 -31 19 -22 20 -18 41 7 41 21 0 128 110 143 148 17 41 24 40
39 -2z"/>
<path d="M1600 1968 c-111 -248 -203 -458 -204 -466 -1 -10 20 -13 92 -14 52
0 96 3 100 6 3 4 25 50 47 104 l42 97 217 0 218 0 42 -100 43 -100 98 -5 c67
-3 99 -1 102 6 2 6 -88 216 -201 465 l-205 454 -94 3 -93 3 -204 -453z m450
247 c168 -370 310 -686 310 -691 0 -3 -32 -4 -72 -2 l-72 3 -36 82 c-57 132
-35 123 -285 123 -250 0 -233 7 -287 -122 -18 -44 -38 -82 -44 -85 -6 -2 -39
-3 -73 -1 l-61 3 19 40 c11 22 72 157 136 300 65 143 125 278 135 300 62 137
74 163 86 193 l15 33 76 -3 76 -3 77 -170z"/>
<path d="M1867 2193 c-17 -20 -137 -295 -137 -315 0 -8 7 -23 15 -35 14 -20
24 -21 148 -22 121 -1 135 0 151 18 18 20 16 63 -5 101 -5 8 -30 65 -55 125
-46 111 -67 145 -89 145 -7 0 -19 -8 -28 -17z m103 -165 c36 -84 67 -156 68
-160 2 -4 -62 -8 -143 -8 -81 0 -145 4 -143 9 40 103 136 311 143 311 6 0 39
-69 75 -152z"/>
<path d="M2522 1954 l3 -466 88 1 c48 0 92 0 97 1 7 0 9 156 8 463 l-3 462
-98 3 -97 3 2 -467z m160 1 l3 -435 -67 0 -68 0 0 435 0 435 65 0 65 0 2 -435z"/>
</g>
</svg>
