<svg version="1.1" id="Layer_1" xmlns="http://www.w3.org/2000/svg" xmlns:xlink="http://www.w3.org/1999/xlink" x="0px" y="0px"
	 width="100%" viewBox="0 0 976 976" enable-background="new 0 0 976 976" xml:space="preserve">
<path fill="#000000" opacity="1.000000" stroke="none" 
	d="
M305.184021,649.178406 
	C322.975098,609.678223 340.613159,570.520691 358.248352,531.361816 
	C369.253784,506.924194 380.327728,482.516846 391.178070,458.010529 
	C392.774689,454.404419 394.884460,452.920105 398.732361,452.974182 
	C408.224365,453.107574 417.730560,453.271271 427.209442,452.888275 
	C432.479919,452.675293 435.302643,454.500732 437.472290,459.372986 
	C452.570892,493.279022 467.947388,527.061279 483.226715,560.886902 
	C496.242859,589.702209 509.238953,618.526550 522.263550,647.337952 
	C526.577698,656.881165 525.741638,658.216980 515.289124,658.212219 
	C505.295410,658.207703 495.300323,658.105042 485.308685,658.245422 
	C481.463654,658.299316 479.215240,656.902283 477.718628,653.244202 
	C472.866089,641.383362 467.612885,629.686401 462.757324,617.826721 
	C461.146820,613.893127 458.873688,612.264587 454.503876,612.291992 
	C427.188721,612.463257 399.871582,612.467529 372.556305,612.313599 
	C368.183899,612.288940 365.931641,613.957825 364.321045,617.880432 
	C359.390503,629.888794 354.092468,641.745911 349.119202,653.737305 
	C347.772949,656.983337 345.787506,658.312805 342.299622,658.268921 
	C331.807861,658.136780 321.313324,658.244629 310.820038,658.209167 
	C303.311829,658.183777 302.174957,656.440186 305.184021,649.178406 
M402.967133,528.369324 
	C397.050262,542.133423 391.139099,555.900085 385.212250,569.659851 
	C383.814819,572.904175 383.430664,575.851074 388.184967,575.880127 
	C405.175018,575.983887 422.166260,575.949158 439.156738,575.887329 
	C442.798645,575.874084 443.897705,573.908264 442.474915,570.592163 
	C433.943146,550.707581 425.402374,530.826721 416.841003,510.954834 
	C416.187469,509.437836 415.509796,507.572083 413.537872,507.644836 
	C411.583435,507.716949 411.048798,509.680084 410.391907,511.163300 
	C407.964905,516.643127 405.624878,522.161438 402.967133,528.369324 
z"/>
<path fill="#000000" opacity="1.000000" stroke="none" 
	d="
M449.187714,352.217987 
	C477.498108,340.083435 496.085571,319.467773 505.967285,290.827057 
	C506.293060,289.882874 506.669281,288.955933 506.988953,288.009796 
	C508.243378,284.296783 510.768280,282.084686 514.725769,282.063568 
	C518.548279,282.043182 520.792603,284.458221 522.127808,287.787811 
	C523.428101,291.030151 524.536804,294.350189 525.867676,297.579254 
	C536.488159,323.347748 554.609375,341.654297 580.431580,352.253052 
	C583.665649,353.580475 586.946899,354.796112 590.226868,356.007660 
	C593.639893,357.268402 596.041809,359.433716 596.120117,363.250397 
	C596.201965,367.237671 593.874512,369.742432 590.332153,371.162262 
	C586.161865,372.833771 581.877930,374.238220 577.769714,376.045868 
	C552.923523,386.978516 535.568787,405.166107 525.519226,430.351715 
	C524.409119,433.133911 523.406860,435.959320 522.365845,438.768829 
	C520.983521,442.499176 518.727112,445.221466 514.378601,445.067474 
	C510.300171,444.923065 508.153748,442.229858 506.924896,438.697784 
	C504.843475,432.715240 502.535980,426.841949 499.651642,421.186768 
	C487.887878,398.122375 469.485870,382.627930 445.482086,373.481262 
	C443.304413,372.651459 441.110809,371.863251 438.919373,371.070099 
	C435.471222,369.822144 433.180573,367.469940 433.068054,363.754059 
	C432.946808,359.751129 435.391876,357.340454 438.998962,356.004425 
	C442.277710,354.790039 445.560577,353.586670 449.187714,352.217987 
z"/>
<path fill="#000000" opacity="1.000000" stroke="none" 
	d="
M593.148804,640.992432 
	C593.148438,645.154663 593.121094,648.818726 593.148743,652.482300 
	C593.176086,656.112549 591.529968,658.185974 587.791016,658.194580 
	C576.466370,658.220581 565.141663,658.192566 553.816956,658.192444 
	C550.277588,658.192383 548.664734,656.381165 548.712280,652.903198 
	C548.746399,650.405762 548.696350,647.907166 548.696289,645.409119 
	C548.693970,584.121765 548.691467,522.834412 548.694458,461.547028 
	C548.694824,453.643494 549.293518,453.029480 557.208862,452.996674 
	C566.701660,452.957306 576.194519,452.958832 585.687378,452.961182 
	C592.113464,452.962738 593.158203,454.078613 593.158691,461.128662 
	C593.162598,520.917114 593.152100,580.705627 593.148804,640.992432 
z"/>
<path fill="#000000" opacity="1.000000" stroke="none" 
	d="
M639.546997,367.643677 
	C640.711426,364.543335 642.426331,362.696198 645.607788,362.931976 
	C648.795227,363.168182 650.108643,365.457336 650.998718,368.099548 
	C658.574890,390.589600 673.420471,405.872803 695.978149,413.524994 
	C698.952881,414.534119 701.668884,415.903351 701.665222,419.586304 
	C701.661621,423.217407 699.168152,424.591675 696.056946,425.621796 
	C674.006348,432.923157 659.338196,447.789490 651.443298,469.510651 
	C651.215759,470.136536 651.000183,470.766693 650.776672,471.394012 
	C649.815369,474.091003 648.269714,476.187561 645.106812,476.172729 
	C641.898621,476.157715 640.528442,473.880524 639.541321,471.252167 
	C639.072998,470.005280 638.585815,468.765503 638.110596,467.521210 
	C630.390442,447.308929 616.280457,433.634460 595.958191,426.311127 
	C594.549927,425.803619 593.080994,425.394989 591.773926,424.691986 
	C589.731873,423.593689 588.626892,421.870880 588.676819,419.409546 
	C588.727112,416.930145 589.857666,415.290924 592.079773,414.392181 
	C595.010498,413.206848 598.025391,412.218994 600.914490,410.943268 
	C620.197021,402.428467 632.624146,387.737701 639.546997,367.643677 
z"/>
<path fill="#000000" opacity="1.000000" stroke="none" 
	d="
M571.881592,292.135742 
	C568.500549,290.315582 563.471069,290.579376 563.433716,285.821442 
	C563.396118,281.038361 568.305115,281.004395 571.468750,279.659210 
	C584.391296,274.164520 593.427063,264.937592 598.721497,251.983673 
	C599.161621,250.906860 599.480164,249.780640 599.912048,248.700119 
	C600.744751,246.616974 601.829285,244.738113 604.400757,244.589325 
	C607.122498,244.431839 608.147766,246.464096 608.952576,248.494492 
	C610.671143,252.830338 612.364807,257.169952 614.967651,261.074890 
	C621.171265,270.381958 629.524902,276.936157 640.071716,280.709259 
	C642.540649,281.592499 645.475830,282.204590 645.588257,285.626068 
	C645.711182,289.367798 642.637939,289.976410 639.973877,290.942749 
	C625.705933,296.118225 615.718506,305.709106 610.194702,319.886536 
	C609.711853,321.125824 609.258606,322.377411 608.745544,323.604004 
	C607.910645,325.599792 606.501587,326.980927 604.246948,326.961426 
	C602.108643,326.942963 601.057739,325.376038 600.354126,323.596039 
	C598.333191,318.483276 596.195190,313.414856 593.006592,308.907349 
	C587.687378,301.388062 580.674438,295.922089 571.881592,292.135742 
z"/>
</svg>