<svg version="1.1" id="Layer_1" xmlns="http://www.w3.org/2000/svg" xmlns:xlink="http://www.w3.org/1999/xlink" x="0px" y="0px"
	 width="100%" viewBox="0 0 1024 1024" enable-background="new 0 0 1024 1024" xml:space="preserve">

	<circle cx="513" cy="535" r="290"
			fill="none"
			stroke="#02D1FD"
			stroke-width="60" />

	<circle cx="513" cy="535" r="360"
			fill="none"
			stroke="#2276FF"
			stroke-width="60" />

	<line x1="95" y1="542" x2="350" y2="542"
		  stroke="#FD8502"
		  stroke-width="36"
		  stroke-linecap="round" />

	<line x1="695" y1="542" x2="930" y2="542"
		  stroke="#FD8502"
		  stroke-width="36"
		  stroke-linecap="round" />
	
	<path fill="#FD8502" opacity="1.000000" stroke="none" 
	d="
M473.394836,615.434937 
	C456.024048,561.474854 438.795380,507.886108 421.566681,454.297302 
	C421.110443,454.355377 420.654205,454.413452 420.197937,454.471527 
	C417.232178,464.782562 414.349274,475.118347 411.281891,485.399109 
	C406.195068,502.448486 401.121948,519.504028 395.794983,536.479126 
	C390.914185,552.032410 379.990479,559.153564 361.205322,559.203979 
	C331.710236,559.283203 302.214783,559.229248 272.719482,559.227966 
	C239.391464,559.226562 206.063324,559.267334 172.735489,559.187012 
	C163.616226,559.165039 157.050903,553.808289 155.033661,545.230896 
	C153.327911,537.977966 157.291016,529.430298 164.219971,525.849976 
	C168.491302,523.642944 173.214264,523.691528 177.884323,523.691895 
	C236.208542,523.696899 294.532806,523.742188 352.856934,523.671936 
	C363.856598,523.658691 361.266479,525.514465 364.558990,514.563721 
	C374.466797,481.610809 384.082764,448.569733 394.088287,415.646851 
	C397.633972,403.979828 407.962280,396.135651 419.014191,395.676331 
	C431.845917,395.143005 442.362305,401.200409 446.884857,413.424103 
	C452.477997,428.541443 457.000793,444.055725 461.950653,459.409943 
	C471.900604,490.274200 481.834381,521.143738 491.759827,552.015869 
	C499.392639,575.757080 507.002533,599.505737 514.984741,624.379333 
	C518.763062,614.177246 522.308655,604.867188 525.665588,595.489746 
	C535.590515,567.764954 545.449829,540.016724 555.315613,512.270813 
	C559.162048,501.453400 562.927795,490.607239 566.783203,479.793030 
	C571.439087,466.733307 581.525635,459.492767 594.671509,459.693146 
	C606.167175,459.868347 616.008728,467.649902 620.241028,480.069611 
	C624.586853,492.822754 628.989014,505.561218 633.011658,518.417175 
	C634.264160,522.420105 636.059143,523.798218 640.337891,523.789673 
	C709.993408,523.649963 779.649292,523.691284 849.305054,523.695435 
	C859.461975,523.696045 865.721924,527.290710 868.674683,534.789795 
	C872.809631,545.291687 866.791809,556.167786 855.693665,558.355835 
	C850.078430,559.462952 844.400757,559.181763 838.750854,559.184875 
	C769.262207,559.222900 699.773621,559.227661 630.284973,559.166687 
	C615.608826,559.153809 606.121338,552.455688 600.822327,538.804077 
	C598.384460,532.523438 596.862610,525.856201 593.070984,519.500061 
	C589.792175,523.500488 588.604370,527.810181 587.126709,531.931274 
	C574.320068,567.647034 561.567749,603.382263 548.804504,639.113525 
	C546.564758,645.383667 544.546265,651.748230 541.476257,657.680908 
	C535.994934,668.273499 527.183899,674.828430 515.385986,675.120789 
	C502.453125,675.441284 492.897278,668.564331 487.285645,656.935181 
	C482.062592,646.111267 479.712891,634.248657 475.829590,622.933167 
	C475.019714,620.573242 474.298828,618.182678 473.394836,615.434937 
z"/>

 
</svg>